<?xml version="1.0" encoding="UTF-8" standalone="no"?>
<svg
   height="38"
   viewBox="0 -960 960 760"
   width="48"
   version="1.1"
   id="svg4"
   sodipodi:docname="menu.svg"
   inkscape:export-filename="close.svg"
   inkscape:export-xdpi="96"
   inkscape:export-ydpi="96"
   xmlns:inkscape="http://www.inkscape.org/namespaces/inkscape"
   xmlns:sodipodi="http://sodipodi.sourceforge.net/DTD/sodipodi-0.dtd"
   xmlns:xlink="http://www.w3.org/1999/xlink"
   xmlns="http://www.w3.org/2000/svg"
   xmlns:svg="http://www.w3.org/2000/svg">
  <sodipodi:namedview
     id="namedview9"
     pagecolor="#505050"
     bordercolor="#eeeeee"
     borderopacity="1"
     inkscape:showpageshadow="0"
     inkscape:pageopacity="0"
     inkscape:pagecheckerboard="true"
     inkscape:deskcolor="#505050"
     showgrid="false"
     inkscape:zoom="7.6161293"
     inkscape:cx="20.482846"
     inkscape:cy="23.634053"
     inkscape:window-width="1366"
     inkscape:window-height="697"
     inkscape:window-x="-8"
     inkscape:window-y="-8"
     inkscape:window-maximized="1"
     inkscape:current-layer="svg4" />
  <defs
     id="defs8">
    <linearGradient
       inkscape:collect="always"
       id="linearGradient1750">
      <stop
         style="stop-color:#ff1010;stop-opacity:1;"
         offset="0.51666671"
         id="stop1746" />
      <stop
         style="stop-color:#a80000;stop-opacity:1;"
         offset="0.99285716"
         id="stop1744" />
    </linearGradient>
    <clipPath
       clipPathUnits="userSpaceOnUse"
       id="clipPath541">
      <rect
         style="fill:#ff1010;fill-rule:evenodd;stroke-width:28;stroke-linecap:square;stroke-linejoin:round;stroke-dashoffset:438.809;paint-order:fill markers stroke"
         id="rect543"
         width="1045.1503"
         height="165.43837"
         x="-31.51207"
         y="-986.26007" />
    </clipPath>
    <linearGradient
       inkscape:collect="always"
       xlink:href="#linearGradient1750"
       id="linearGradient1742"
       x1="-14.060022"
       y1="-519.18817"
       x2="976.39893"
       y2="-519.18817"
       gradientUnits="userSpaceOnUse" />
    <linearGradient
       inkscape:collect="always"
       xlink:href="#linearGradient1750"
       id="linearGradient1758"
       gradientUnits="userSpaceOnUse"
       x1="-14.060022"
       y1="-519.18817"
       x2="976.39893"
       y2="-519.18817" />
    <linearGradient
       inkscape:collect="always"
       xlink:href="#linearGradient1750"
       id="linearGradient1760"
       gradientUnits="userSpaceOnUse"
       x1="-14.060022"
       y1="-519.18817"
       x2="976.39893"
       y2="-519.18817" />
  </defs>
  <g
     id="g1734"
     style="fill:url(#linearGradient1742);fill-opacity:1"
     transform="matrix(1,0,0,0.92920664,7.8780175,-129.68885)">
    <path
       d="m 45.013708,-289.68055 c -24.165801,-0.081 -24.15304,-78.7767 0,-77.92855 247.683712,8.69771 604.339772,-5.77257 869.972642,0 24.1609,0.52507 24.1609,77.39899 0,77.92855 -263.3892,5.77256 -586.39058,0.94909 -869.972642,0 z m 0,-272.74986 c -24.160542,-0.5482 -24.165753,-77.83152 0,-77.92852 236.465502,-0.94912 581.903342,1.46256 869.972642,0 24.16559,-0.12282 24.1639,77.58832 0,77.92852 -238.70916,3.36084 -615.55798,5.77259 -869.972642,0 z m 0,-272.74985 c -12.082067,-0.15821 -42.1643134,-18.13817 -42.1644854,-37.5996 -1.72e-4,-19.46142 30.0817284,-40.40433 42.1644854,-40.32889 234.221872,1.46255 628.580392,2.34422 869.972642,0 12.08237,-0.11733 37.33181,19.36063 37.33246,38.87302 6.6e-4,19.51239 -25.24747,39.05922 -37.33246,39.05547 -242.23947,-0.0752 -613.31431,3.36095 -869.972642,0 z"
       id="path545"
       style="fill:url(#linearGradient1758);fill-opacity:1;stroke:none;stroke-width:13.7802;stroke-linecap:round;stroke-linejoin:round;stroke-dasharray:none;stroke-opacity:1"
       inkscape:export-filename="menu.svg"
       inkscape:export-xdpi="96"
       inkscape:export-ydpi="96"
       clip-path="url(#clipPath541)"
       transform="matrix(-0.77884026,0.7679616,-1.2201907,-1.2035446,-226.15679,-1898.9602)"
       sodipodi:nodetypes="ssscssscsssscssss" />
    <path
       d="m 45.013708,-289.68055 c -24.165801,-0.081 -24.15304,-78.7767 0,-77.92855 247.683712,8.69771 604.339772,-5.77257 869.972642,0 24.1609,0.52507 24.1609,77.39899 0,77.92855 -263.3892,5.77256 -586.39058,0.94909 -869.972642,0 z m 0,-272.74986 c -24.160542,-0.5482 -24.165753,-77.83152 0,-77.92852 236.465502,-0.94912 581.903342,1.46256 869.972642,0 24.16559,-0.12282 24.1639,77.58832 0,77.92852 -238.70916,3.36084 -615.55798,5.77259 -869.972642,0 z m 0,-272.74985 c -12.082067,-0.15821 -42.1643134,-18.13817 -42.1644854,-37.5996 -1.72e-4,-19.46142 30.0817284,-40.40433 42.1644854,-40.32889 234.221872,1.46255 628.580392,2.34422 869.972642,0 12.08237,-0.11733 37.33181,19.36063 37.33246,38.87302 6.6e-4,19.51239 -25.24747,39.05922 -37.33246,39.05547 -242.23947,-0.0752 -613.31431,3.36095 -869.972642,0 z"
       id="path1458"
       style="fill:url(#linearGradient1760);fill-opacity:1;stroke:none;stroke-width:13.7802;stroke-linecap:round;stroke-linejoin:round;stroke-dasharray:none;stroke-opacity:1"
       inkscape:export-filename="menu.svg"
       inkscape:export-xdpi="96"
       inkscape:export-ydpi="96"
       clip-path="url(#clipPath541)"
       transform="matrix(0.77884026,0.7679616,1.2201907,-1.2035446,1188.4957,-1909.4642)"
       sodipodi:nodetypes="ssscssscsssscssss" />
  </g>
</svg>
