<?xml version="1.0" encoding="UTF-8" standalone="no"?>
<!-- Created with Inkscape (http://www.inkscape.org/) -->

<svg
   width="19.831919"
   height="23.683031"
   viewBox="0 0 5.2471919 6.2661314"
   version="1.1"
   id="svg10172"
   inkscape:version="1.2 (dc2aedaf03, 2022-05-15)"
   inkscape:export-filename="gallery.svg"
   inkscape:export-xdpi="96"
   inkscape:export-ydpi="96"
   xml:space="preserve"
   sodipodi:docname="gallery.svg"
   xmlns:inkscape="http://www.inkscape.org/namespaces/inkscape"
   xmlns:sodipodi="http://sodipodi.sourceforge.net/DTD/sodipodi-0.dtd"
   xmlns:xlink="http://www.w3.org/1999/xlink"
   xmlns="http://www.w3.org/2000/svg"
   xmlns:svg="http://www.w3.org/2000/svg"><sodipodi:namedview
     id="namedview10174"
     pagecolor="#141414"
     bordercolor="#0a22b7"
     borderopacity="1"
     inkscape:pageshadow="0"
     inkscape:pageopacity="1"
     inkscape:pagecheckerboard="true"
     inkscape:document-units="px"
     showgrid="false"
     borderlayer="true"
     inkscape:showpageshadow="false"
     inkscape:deskcolor="#141414" /><defs
     id="defs10169"><clipPath
       clipPathUnits="userSpaceOnUse"
       id="clipPath3902"><path
         id="lpe_path-effect3910"
         style="fill:#a80000;fill-opacity:1;fill-rule:evenodd;stroke:none;stroke-width:0.79375;stroke-linecap:round;stroke-linejoin:round;stroke-dasharray:none;stroke-dashoffset:0;stroke-opacity:1;paint-order:fill markers stroke"
         class="powerclip"
         d="M 0.29933992,-2.442119 H 26.07611 V 29.35558 H 0.29933992 Z M 3.9082329,4.8635783 V 27.357629 H 19.106917 V 4.8635783 Z" /></clipPath><clipPath
       clipPathUnits="userSpaceOnUse"
       id="clipPath3906"><path
         id="lpe_path-effect3914"
         style="fill:#a80000;fill-opacity:1;fill-rule:evenodd;stroke:none;stroke-width:0.79375;stroke-linecap:round;stroke-linejoin:round;stroke-dasharray:none;stroke-dashoffset:0;stroke-opacity:1;paint-order:fill markers stroke"
         class="powerclip"
         d="M 2.5574299,-5.0476075 H 28.3342 V 26.750091 H 2.5574299 Z m 1.350803,9.9111858 V 27.357629 H 19.106917 V 4.8635783 Z" /></clipPath><linearGradient
       id="linearGradient90979"><stop
         style="stop-color:#0400ff;stop-opacity:1;"
         offset="0.35238096"
         id="stop90975" /><stop
         style="stop-color:#000676;stop-opacity:1;"
         offset="1"
         id="stop90977" /></linearGradient><linearGradient
       inkscape:collect="always"
       xlink:href="#linearGradient90979"
       id="linearGradient17432"
       x1="5.6195979"
       y1="13.456731"
       x2="20.755852"
       y2="13.456731"
       gradientUnits="userSpaceOnUse" /><linearGradient
       inkscape:collect="always"
       xlink:href="#linearGradient90979"
       id="linearGradient17434"
       x1="7.8776879"
       y1="10.851242"
       x2="23.013943"
       y2="10.851242"
       gradientUnits="userSpaceOnUse" /><linearGradient
       inkscape:collect="always"
       xlink:href="#linearGradient90979"
       id="linearGradient17436"
       gradientUnits="userSpaceOnUse"
       x1="2.6898429"
       y1="12.699992"
       x2="22.71014"
       y2="12.699992"
       gradientTransform="matrix(0.20035898,0,0,0.20178958,1.5784348,1.0219988)" /><linearGradient
       inkscape:collect="always"
       xlink:href="#linearGradient90979"
       id="linearGradient17496"
       x1="3.5527539"
       y1="18.75856"
       x2="9.8782787"
       y2="18.75856"
       gradientUnits="userSpaceOnUse"
       gradientTransform="matrix(0.24227247,0,0,0.2481649,1.5448745,-0.11380661)" /></defs><g
     inkscape:label="Layer 1"
     inkscape:groupmode="layer"
     id="layer1"
     transform="translate(-2.0375679,0.12314616)"><g
       id="g17574"><rect
         style="fill:none;fill-opacity:1;fill-rule:evenodd;stroke:url(#linearGradient17436);stroke-width:0.159602;stroke-linecap:round;stroke-linejoin:round;stroke-dasharray:0.638406, 0.3192, 0.159602, 0.3192;stroke-dashoffset:0;stroke-opacity:1;paint-order:fill markers stroke"
         id="rect2806"
         width="4.0112462"
         height="4.9569178"
         x="2.1173689"
         y="1.1062663" /><path
         id="path1219"
         style="fill:url(#linearGradient17496);fill-opacity:1;stroke:none;stroke-width:0.133013;stroke-linecap:round;stroke-linejoin:round;stroke-dasharray:0.532047, 0.266026, 0.133013, 0.266026;stroke-dashoffset:0"
         d="M 5.4108535,1.4185653 A 0.42409289,0.427121 0 0 0 4.9868091,1.8456134 0.42409289,0.427121 0 0 0 5.4108535,2.2727898 0.42409289,0.427121 0 0 0 5.8348982,1.8456134 0.42409289,0.427121 0 0 0 5.4108535,1.4185653 Z M 3.0883114,1.5201335 C 2.9825192,1.520621 2.8686078,1.534936 2.7706849,1.5722 2.5965997,1.6384471 2.472932,1.7771227 2.4159998,1.8803672 c -0.056932,0.1032445 -0.047168,0.1710878 0.037434,0.183387 0.084602,0.012299 0.2440798,-0.030875 0.3904916,-0.060146 0.1464119,-0.029271 0.2797566,-0.044653 0.4212902,-0.030778 0.1415337,0.013875 0.2911658,0.056965 0.4115248,0.04309 C 3.7970997,2.0020445 3.8882126,1.9312078 3.9223784,1.8572835 3.9565444,1.7833592 3.9338492,1.7062766 3.863911,1.6738965 3.7939726,1.6415164 3.6768197,1.65389 3.5906045,1.6354236 3.5043891,1.6169574 3.4490602,1.5676334 3.3091601,1.5398828 3.2479539,1.527742 3.1705942,1.5197543 3.0883114,1.5201335 Z m 1.2869071,0.7594532 c -0.058937,2.09e-4 -0.1181641,0.00948 -0.172773,0.025905 -0.097082,0.029199 -0.1795362,0.080936 -0.2780639,0.086564 -0.098528,0.00563 -0.2132319,-0.034822 -0.3250132,-0.05617 C 3.4875871,2.3145378 3.3788236,2.3122414 3.2817418,2.3335768 3.18466,2.3549123 3.0993474,2.3999231 3.0184511,2.4527143 2.9375549,2.5055052 2.8610655,2.5660962 2.849309,2.6278939 c -0.011757,0.061797 0.041166,0.1247174 0.1102992,0.1685106 0.069133,0.043793 0.1544326,0.068534 0.2205983,0.05617 0.066166,-0.012364 0.1132447,-0.061813 0.2044478,-0.094386 0.091203,-0.032574 0.2264691,-0.048278 0.3073604,-0.040397 0.080891,0.00788 0.1074367,0.039268 0.178031,0.034754 0.070595,-0.00452 0.1852198,-0.044948 0.2984712,-0.079767 0.113252,-0.034819 0.2250902,-0.064028 0.300099,-0.050528 0.075009,0.0135 0.1132854,0.069676 0.182413,0.084255 0.069127,0.014579 0.1690662,-0.012351 0.2587836,-0.037062 0.089718,-0.02471 0.1691703,-0.047181 0.1824129,-0.078613 0.013243,-0.03143 -0.039671,-0.071875 -0.1029124,-0.09772 C 4.9260714,2.4672656 4.8525199,2.4560722 4.7730967,2.4201407 4.6936737,2.3842091 4.6083495,2.3234867 4.5098059,2.2965147 4.4666933,2.2847144 4.4210581,2.2794241 4.3752185,2.2795867 Z M 3.1718183,3.2687225 2.4056085,5.8140834 h 1.0089681 0.5235767 1.1319122 l -0.00601,-0.012312 H 5.66826 L 5.209661,4.2477272 4.8692483,5.4011419 4.2423836,4.1114052 3.7379621,5.1490169 Z" /><path
         id="rect3817"
         transform="matrix(0.26026213,0,0,0.25055229,1.2117508,-0.11121798)"
         clip-path="url(#clipPath3906)"
         d="M 7.8776879,0.27265045 H 23.013942 V 21.429833 H 7.8776879 Z"
         style="fill:none;fill-opacity:1;fill-rule:evenodd;stroke:url(#linearGradient17434);stroke-width:0.640516;stroke-linecap:round;stroke-linejoin:round;stroke-dasharray:none;stroke-dashoffset:0;stroke-opacity:1;paint-order:fill markers stroke" /><path
         id="rect3828"
         transform="matrix(0.26026213,0,0,0.25055229,1.2117508,-0.11121798)"
         clip-path="url(#clipPath3902)"
         d="M 5.6195979,2.878139 H 20.755852 V 24.035322 H 5.6195979 Z"
         style="fill:none;fill-opacity:1;fill-rule:evenodd;stroke:url(#linearGradient17432);stroke-width:0.640516;stroke-linecap:round;stroke-linejoin:round;stroke-dasharray:none;stroke-dashoffset:0;stroke-opacity:1;paint-order:fill markers stroke" /></g></g></svg>
