<?xml version="1.0" encoding="UTF-8" standalone="no"?>
<svg
   height="23.995649"
   viewBox="0 -960 480.02674 479.91299"
   width="24.001337"
   version="1.1"
   id="svg1816"
   xml:space="preserve"
   sodipodi:docname="home.svg"
   inkscape:export-filename=".\home.svg"
   inkscape:export-xdpi="96"
   inkscape:export-ydpi="96"
   inkscape:version="1.2 (dc2aedaf03, 2022-05-15)"
   xmlns:inkscape="http://www.inkscape.org/namespaces/inkscape"
   xmlns:sodipodi="http://sodipodi.sourceforge.net/DTD/sodipodi-0.dtd"
   xmlns:xlink="http://www.w3.org/1999/xlink"
   xmlns="http://www.w3.org/2000/svg"
   xmlns:svg="http://www.w3.org/2000/svg"><sodipodi:namedview
     id="namedview5"
     pagecolor="#505050"
     bordercolor="#eeeeee"
     borderopacity="1"
     inkscape:showpageshadow="0"
     inkscape:pageopacity="0"
     inkscape:pagecheckerboard="true"
     inkscape:deskcolor="#505050"
     showgrid="true"
     inkscape:zoom="1.7747715"
     inkscape:cx="30.989905"
     inkscape:cy="47.89349"
     inkscape:window-width="1366"
     inkscape:window-height="697"
     inkscape:window-x="-8"
     inkscape:window-y="-8"
     inkscape:window-maximized="1"
     inkscape:current-layer="svg1816"><inkscape:grid
       type="xygrid"
       id="grid180" /></sodipodi:namedview><defs
     id="defs1820"><linearGradient
       id="linearGradient90979"><stop
         style="stop-color:#0400ff;stop-opacity:1;"
         offset="0.35238096"
         id="stop90975" /><stop
         style="stop-color:#000676;stop-opacity:1;"
         offset="1"
         id="stop90977" /></linearGradient><linearGradient
       inkscape:collect="always"
       xlink:href="#linearGradient90979"
       id="linearGradient12136"
       x1="154.95853"
       y1="13.283445"
       x2="1769.9814"
       y2="13.283445"
       gradientUnits="userSpaceOnUse"
       gradientTransform="matrix(0.26691909,0,0,0.2504859,43.772706,-715.10913)" /><linearGradient
       inkscape:collect="always"
       xlink:href="#linearGradient90979"
       id="linearGradient12144"
       x1="60.021343"
       y1="2.7618973"
       x2="1859.9788"
       y2="2.7618973"
       gradientUnits="userSpaceOnUse"
       gradientTransform="matrix(0.26691909,0,0,0.2504859,43.772706,-715.10913)" /></defs><g
     id="g17863"
     transform="translate(-59.994606,-5.6261091)"><g
       id="g17858"><path
         d="M 110.42573,-520.83557 H 219.80418 V -686.28978 H 380.2259 v 165.45421 H 489.60432 V -778.94414 L 300.01505,-907.99841 110.42573,-778.94414 Z m 0,39.709 q -18.047429,0 -30.899401,-11.66452 -12.851966,-11.66452 -12.851966,-28.04448 v -258.10857 q 0,-9.43089 4.648586,-17.86904 4.648586,-8.43817 12.85197,-13.89816 L 273.76421,-939.76562 q 6.04863,-3.97089 12.64707,-5.95636 6.59844,-1.98544 13.74741,-1.98544 7.14825,0 13.64824,1.98544 6.50073,1.98547 12.4589,5.95636 l 189.58934,129.05428 q 8.20336,5.45999 12.85197,13.89816 4.64855,8.43815 4.64855,17.86904 v 258.10857 q 0,16.37996 -12.85194,28.04448 -12.85196,11.66452 -30.89943,11.66452 h -153.1298 v -165.45421 h -72.91896 v 165.45421 z M 300.01505,-714.7479 Z"
         id="path5195"
         style="fill:none;fill-opacity:1;stroke:url(#linearGradient12144);stroke-width:13.3313;stroke-linecap:round;stroke-linejoin:round;stroke-dasharray:53.3248, 26.6624, 13.3313, 26.6624;stroke-dashoffset:0;stroke-opacity:1;image-rendering:auto"
         inkscape:export-filename=".\home.svg"
         inkscape:export-xdpi="96"
         inkscape:export-ydpi="96" /><path
         d="m 123.94089,-535.32909 h 79.98326 v -154.52104 c 0,0 -0.19679,-5.77697 2.34996,-8.16692 2.54673,-2.38994 8.34817,-2.07295 8.34817,-2.07295 h 170.45986 c 0,0 6.38636,-0.48468 8.9633,1.93361 2.57694,2.41828 2.06046,8.24113 2.06046,8.24113 v 154.58617 l 81.30182,-2.63519 V -767.08581 L 302.65215,-888.23453 123.94089,-769.72099 Z m 0,34.43863 c -10.67186,0 -19.80763,-3.37211 -27.4073,-10.11634 -7.599667,-6.74424 -11.399497,-14.85167 -11.399497,-24.32229 v -234.3919 c 0,-5.45279 1.374409,-10.61859 4.123224,-15.49739 2.748819,-4.87881 6.548651,-8.89665 11.399503,-12.05353 l 178.71123,-118.51354 c 3.57669,-2.2959 7.31595,-4.01783 11.21777,-5.16579 3.90181,-1.14795 7.96639,-1.72193 12.19373,-1.72193 4.22693,0 8.2622,0.57398 12.10578,1.72193 3.84404,1.14796 7.52768,2.86989 11.05091,5.16579 l 174.75556,121.14873 c 4.85088,3.15688 8.65071,7.17471 11.39949,12.05353 2.74882,4.8788 4.12324,10.04459 4.12324,15.49738 v 229.12153 c 0,9.47062 -3.79984,17.57805 -11.39951,24.32229 -7.59964,6.74423 -16.73793,9.8846 -27.4073,10.11635 l -121.31977,2.63518 -1.31853,-165.8934 -109.50877,2.63518 -1.31854,163.25822 z"
         id="path5197"
         style="fill:url(#linearGradient12136);fill-opacity:1;stroke:none;stroke-width:13.4559;stroke-linecap:round;stroke-linejoin:round;stroke-dasharray:53.8235, 26.9117, 13.4559, 26.9117;stroke-dashoffset:0;stroke-opacity:1;image-rendering:auto"
         sodipodi:nodetypes="ccczcczcccccccsssssccsscccsssssccccs" /></g></g></svg>
